<svg xmlns="http://www.w3.org/2000/svg" viewBox="0 0 25 25"><path d="M20 4.5V3.22A2.23 2.23 0 0 0 17.78 1H7.22A2.23 2.23 0 0 0 5 3.22V4.5a.5.5 0 0 0 .5.5H6L5 23.47a.46.46 0 0 0 .14.37.48.48 0 0 0 .36.16h2.1a.51.51 0 0 0 .5-.47L8.41 18H11v5.5a.5.5 0 0 0 .5.5h2a.5.5 0 0 0 .5-.5V18h2.63l.37 5.53a.51.51 0 0 0 .5.47h2a.48.48 0 0 0 .36-.16.46.46 0 0 0 .14-.37L19 5h.47a.5.5 0 0 0 .53-.5zM6 3.22A1.22 1.22 0 0 1 7.22 2h10.56A1.22 1.22 0 0 1 19 3.22V4H6zM16 8l.42 7H14V8zm-3 7h-1V8h1zm-2 0H8.58L9 8h2zm2 8h-1v-5h1zm-4.54-6 .06-1h8l.06 1zM19 23h-1L17 7.47a.51.51 0 0 0-.5-.47h-8a.5.5 0 0 0-.5.47L7.12 23H6L7 5h11z" style="fill:#231f20"/></svg>