<svg xmlns="http://www.w3.org/2000/svg" width="24" height="24"><path d="M22 9.5A1.5 1.5 0 0 0 20.5 8h-5.1l-2.953-5.245a.5.5 0 0 0-.436-.255.5.5 0 0 0-.436.256L8.645 8H3.5a1.5 1.5 0 0 0-.427 2.931l1.563 8.175A2.5 2.5 0 0 0 7.062 21h9.876a2.5 2.5 0 0 0 2.432-1.921l1.557-8.148A1.5 1.5 0 0 0 22 9.5zm-9.987-5.477L14.247 8H9.791zM19.132 15h-3.579l.4-4H19.9zm-4.585 0H9.441l-.409-4h5.915zm-.1 1-.4 4h-4.1l-.409-4zm-6.421-5 .409 4H4.869l-.764-4zm-2.414 7.891L5.06 16h3.477l.409 4H7.062a1.492 1.492 0 0 1-1.45-1.109zm12.782-.027A1.5 1.5 0 0 1 16.938 20h-1.885l.4-4h3.488zM20.5 10h-17a.5.5 0 0 1 0-1h4.586l-.044.081a.5.5 0 0 0 .873.487L9.232 9h5.577l.255.453A.5.5 0 0 0 15.948 9H20.5a.5.5 0 0 1 0 1z"/></svg>